<?xml version="1.0" encoding="iso-8859-1"?>
<!-- Uploaded to: SVG Repo, www.svgrepo.com, Generator: SVG Repo Mixer Tools -->
<svg height="32px" width="32px" version="1.1" id="Layer_1" xmlns="http://www.w3.org/2000/svg" xmlns:xlink="http://www.w3.org/1999/xlink" 
	 viewBox="0 0 512 512" xml:space="preserve">
<path style="fill:#CFF09E;" d="M399.552,276.677c-1.868-38.208-16.346-53.983-58.072-53.983V181.06
	c0-44.964-46.629-74.94-76.605-74.94h-63.546c-52.457,0-89.095,37.469-89.095,89.928v119.904c0,51.626,36.638,89.928,89.928,89.928
	h108.51c46.401,0,80.425-29.969,87.662-72.618 M207.989,181.06h54.387c11.657,0,20.817,9.159,20.817,20.817
	c0,11.657-9.159,20.817-20.817,20.817h-54.387c-11.657,0-20.817-9.159-20.817-20.817C187.173,190.219,196.332,181.06,207.989,181.06
	z M304.011,330.94h-96.02c-11.657,0-20.817-9.159-20.817-20.817s9.159-20.817,20.817-20.817h96.02
	c11.657,0,20.817,9.159,20.817,20.817S315.668,330.94,304.011,330.94z"/>
<g>
	<path style="fill:#507C5C;" d="M310.671,420.024h-108.51c-60.303,0-104.072-43.769-104.072-104.072V196.049
		c0-60.303,43.418-104.072,103.239-104.072h63.546c18.839,0,41.336,9.191,58.712,23.983c20.658,17.589,32.037,40.708,32.037,65.1
		v28.14c17.446,1.726,30.233,6.915,39.643,15.961c11.403,10.964,17.254,27.113,18.414,50.824
		c0.382,7.802-5.635,14.436-13.436,14.818c-7.796,0.363-14.436-5.633-14.818-13.436c-1.556-31.819-11.001-40.53-43.946-40.53
		c-7.812,0-14.144-6.332-14.144-14.144v-41.633c0-37.12-41.015-60.796-62.461-60.796h-63.546c-44.131,0-74.951,31.164-74.951,75.784
		v119.903c0,44.62,31.164,75.785,75.784,75.785h108.51c38.51,0,67.445-23.882,73.718-60.842c1.307-7.701,8.606-12.889,16.31-11.578
		c7.701,1.307,12.885,8.609,11.578,16.31C403.711,386.107,362.878,420.024,310.671,420.024z M304.011,345.084h-96.021
		c-19.603,0-34.96-15.356-34.96-34.96c0-19.603,15.356-34.96,34.96-34.96h96.021c19.603,0,34.96,15.356,34.96,34.96
		C338.971,329.727,323.614,345.084,304.011,345.084z M207.989,303.451c-3.867,0-6.673,2.806-6.673,6.673s2.806,6.673,6.673,6.673
		h96.021c3.865,0,6.673-2.806,6.673-6.673s-2.806-6.673-6.673-6.673H207.989z M262.377,236.837h-54.388
		c-19.603,0-34.96-15.356-34.96-34.96s15.356-34.96,34.96-34.96h54.388c19.603,0,34.96,15.356,34.96,34.96
		C297.338,221.481,281.98,236.837,262.377,236.837z M207.989,195.204c-3.867,0-6.673,2.806-6.673,6.673
		c0,3.867,2.806,6.673,6.673,6.673h54.388c3.867,0,6.673-2.806,6.673-6.673c0-3.867-2.806-6.673-6.673-6.673H207.989z"/>
	<path style="fill:#507C5C;" d="M60.76,139.885c-7.812,0-14.144-6.332-14.144-14.144V60.76c0-7.812,6.332-14.144,14.144-14.144
		h64.98c7.812,0,14.144,6.332,14.144,14.144s-6.332,14.144-14.144,14.144H74.903v50.837
		C74.903,133.553,68.571,139.885,60.76,139.885z"/>
	<path style="fill:#507C5C;" d="M451.24,465.384h-64.98c-7.812,0-14.144-6.332-14.144-14.144s6.332-14.144,14.144-14.144h50.836
		V386.26c0-7.812,6.332-14.144,14.144-14.144s14.144,6.332,14.144,14.144v64.98C465.384,459.05,459.05,465.384,451.24,465.384z"/>
	<path style="fill:#507C5C;" d="M497.856,512H14.144C6.332,512,0,505.668,0,497.856V14.144C0,6.332,6.332,0,14.144,0h483.713
		C505.668,0,512,6.332,512,14.144v483.713C512,505.668,505.668,512,497.856,512z M28.287,483.713h455.425V28.287H28.287V483.713z"/>
</g>
</svg>