<svg width="200" height="200" viewBox="0 0 32 32" fill="none" xmlns="http://www.w3.org/2000/svg">
<path d="M24.972 17.2923C24.8552 14.9043 23.9504 13.9184 21.3425 13.9184V11.3163C21.3425 8.50601 18.4282 6.63251 16.5547 6.63251H12.5831C9.30449 6.63251 7.01462 8.97432 7.01462 12.253V19.747C7.01462 22.9736 9.30449 25.3675 12.6351 25.3675H19.417C22.3171 25.3675 24.4436 23.4944 24.8959 20.8289M12.9993 11.3163H16.3985C17.1271 11.3163 17.6996 11.8887 17.6996 12.6173C17.6996 13.3459 17.1271 13.9184 16.3985 13.9184H12.9993C12.2707 13.9184 11.6982 13.3459 11.6982 12.6173C11.6983 11.8887 12.2707 11.3163 12.9993 11.3163ZM19.0007 20.6838H12.9994C12.2709 20.6838 11.6984 20.1113 11.6984 19.3827C11.6984 18.6541 12.2708 18.0816 12.9994 18.0816H19.0007C19.7292 18.0816 20.3017 18.6541 20.3017 19.3827C20.3017 20.1113 19.7292 20.6838 19.0007 20.6838Z" fill="#FFBB1C"/>
<path d="M19.4169 26.2515H12.6351C8.86613 26.2515 6.13057 23.5159 6.13057 19.747V12.2531C6.13057 8.48413 8.84419 5.74857 12.583 5.74857H16.5546C17.7321 5.74857 19.1381 6.323 20.2241 7.2475C21.5153 8.34682 22.2264 9.79175 22.2264 11.3163V13.075C23.3168 13.1829 24.116 13.5072 24.7041 14.0726C25.4168 14.7578 25.7825 15.7671 25.855 17.2491C25.8789 17.7367 25.5028 18.1513 25.0153 18.1752C24.528 18.1979 24.113 17.8231 24.0891 17.3354C23.9919 15.3468 23.4016 14.8023 21.3425 14.8023C20.8543 14.8023 20.4585 14.4066 20.4585 13.9183V11.3163C20.4585 8.99625 17.8951 7.5165 16.5547 7.5165H12.5831C9.82488 7.5165 7.89863 9.46425 7.89863 12.253V19.7469C7.89863 22.5357 9.84638 24.4835 12.6351 24.4835H19.417C21.8239 24.4835 23.6323 22.9909 24.0244 20.6809C24.1061 20.1996 24.5623 19.8753 25.0438 19.9573C25.5251 20.0389 25.8491 20.4953 25.7674 20.9766C25.2319 24.1317 22.6799 26.2515 19.4169 26.2515ZM19.0007 21.5678H12.9994C11.7742 21.5678 10.8144 20.608 10.8144 19.3828C10.8144 18.1576 11.7741 17.1978 12.9994 17.1978H19.0007C20.2259 17.1978 21.1857 18.1575 21.1857 19.3828C21.1857 20.6079 20.2259 21.5678 19.0007 21.5678ZM12.9993 18.9657C12.7576 18.9657 12.5823 19.1411 12.5823 19.3828C12.5823 19.6244 12.7576 19.7998 12.9993 19.7998H19.0006C19.2422 19.7998 19.4177 19.6244 19.4177 19.3828C19.4177 19.1411 19.2423 18.9657 19.0006 18.9657H12.9993ZM16.3986 14.8023H12.9993C11.7741 14.8023 10.8143 13.8426 10.8143 12.6173C10.8143 11.3921 11.7741 10.4323 12.9993 10.4323H16.3986C17.6238 10.4323 18.5836 11.3921 18.5836 12.6173C18.5836 13.8426 17.6238 14.8023 16.3986 14.8023ZM12.9993 12.2003C12.7576 12.2003 12.5823 12.3756 12.5823 12.6173C12.5823 12.859 12.7576 13.0344 12.9993 13.0344H16.3986C16.6403 13.0344 16.8156 12.859 16.8156 12.6173C16.8156 12.3756 16.6403 12.2003 16.3986 12.2003H12.9993Z" fill="#DCDCDC"/>
</svg>
