<?xml version="1.0" encoding="iso-8859-1"?>
<!-- Uploaded to: SVG Repo, www.svgrepo.com, Generator: SVG Repo Mixer Tools -->
<svg height="32px" width="32px" version="1.1" id="Layer_1" xmlns="http://www.w3.org/2000/svg" xmlns:xlink="http://www.w3.org/1999/xlink" 
	 viewBox="0 0 512 512" xml:space="preserve">
<g>
	<path style="fill:#507C5C;" d="M60.76,139.883c-7.812,0-14.144-6.334-14.144-14.144V60.761c0-7.81,6.332-14.144,14.144-14.144
		h64.98c7.812,0,14.144,6.334,14.144,14.144s-6.332,14.144-14.144,14.144H74.903v50.835
		C74.903,133.551,68.571,139.883,60.76,139.883z"/>
	<path style="fill:#507C5C;" d="M451.239,465.383H386.26c-7.81,0-14.144-6.334-14.144-14.144s6.334-14.144,14.144-14.144h50.835
		V386.26c0-7.81,6.334-14.144,14.144-14.144c7.81,0,14.144,6.334,14.144,14.144v64.979
		C465.383,459.05,459.05,465.383,451.239,465.383z"/>
	<path style="fill:#507C5C;" d="M497.856,512H14.144C6.332,512,0,505.667,0,497.856V14.144C0,6.334,6.332,0,14.144,0h483.713
		C505.667,0,512,6.334,512,14.144v483.713C512,505.667,505.667,512,497.856,512z M28.287,483.713h455.425V28.287H28.287V483.713z"/>
</g>
<path style="fill:#CFF09E;" d="M355.748,289.345c-31.76,0-33.682-27.531-67.98-66.499c-34.308-38.96-80.473-41.5-80.473-41.5
	s3.386,13.132,3.386,48.282c0,35.146-26.259,61.832-46.156,61.832c-48.632,0-53.79-73.138-53.79-35.577
	c0,80.23,65.035,145.275,145.265,145.275s145.265-65.044,145.265-145.275C401.265,218.321,399.462,289.345,355.748,289.345z"/>
<path style="fill:#507C5C;" d="M415.293,246.877c-0.581-12.453-8.646-15.247-12.087-15.871c-5.169-0.939-12.526,0.939-16.231,9.311
	c-0.499,1.127-0.97,2.386-1.566,3.979c-5.724,15.282-13.724,30.905-29.661,30.905c-12.807,0-17.097-5.602-30-25.036
	c-6.714-10.111-15.07-22.696-27.367-36.666c-37.792-42.917-88.184-46.159-90.311-46.277c-4.509-0.236-8.869,1.608-11.729,5.096
	c-2.86,3.489-3.899,8.072-2.772,12.439c0.03,0.123,2.969,12.76,2.969,44.872c0,28.023-20.769,47.688-32.013,47.688
	c-18.771,0-28.761-15.684-36.762-32.632c-0.528-1.119-1.153-2.431-1.899-3.793c7.516-65.15,63.007-115.904,130.137-115.904
	c43.485,0,84.046,21.515,108.497,57.553c4.387,6.462,13.182,8.145,19.647,3.762c6.462-4.387,8.148-13.182,3.762-19.646
	C358.182,122.85,308.872,96.699,256,96.699c-83.91,0-152.869,65.214-158.871,147.619c-0.129,0.737-0.235,1.502-0.301,2.322
	c-0.165,2.051-0.236,4.816-0.236,9.243c0,87.903,71.512,159.419,159.41,159.419c87.897,0,159.409-71.515,159.409-159.419
	C415.409,251.866,415.389,248.958,415.293,246.877z M164.525,305.603c27.886,0,60.3-33.188,60.3-75.975
	c0-12.866-0.443-22.969-1.027-30.707c14.608,4.209,35.86,13.404,53.354,33.267c11.025,12.526,18.467,23.734,25.031,33.622
	c13.424,20.216,25.017,37.676,53.566,37.676c9.708,0,17.837-2.464,24.634-6.322c-7.841,23.634-22.237,44.306-41.031,59.842
	c-0.04,0.033-0.078,0.065-0.117,0.098c-2.334,1.924-4.737,3.768-7.201,5.53c-0.246,0.177-0.495,0.349-0.743,0.523
	c-1.294,0.912-2.607,1.799-3.935,2.665c-0.365,0.238-0.727,0.477-1.093,0.71c-0.721,0.461-1.448,0.915-2.18,1.362
	c-0.536,0.327-1.078,0.645-1.619,0.965c-1.034,0.611-2.076,1.209-3.129,1.793c-0.598,0.331-1.199,0.659-1.803,0.982
	c-0.628,0.335-1.256,0.673-1.891,0.999c-1.057,0.542-2.123,1.069-3.195,1.583c-0.586,0.28-1.174,0.553-1.764,0.825
	c-0.853,0.393-1.711,0.777-2.574,1.151c-0.651,0.283-1.304,0.563-1.96,0.836c-0.997,0.414-2,0.818-3.008,1.208
	c-0.515,0.199-1.031,0.397-1.55,0.59c-1.249,0.465-2.505,0.915-3.772,1.344c-0.412,0.139-0.827,0.269-1.24,0.403
	c-1.076,0.352-2.158,0.69-3.247,1.014c-0.4,0.119-0.799,0.242-1.202,0.358c-1.355,0.389-2.72,0.754-4.092,1.1
	c-0.412,0.103-0.825,0.204-1.238,0.303c-1.341,0.324-2.687,0.634-4.044,0.915c-0.174,0.035-0.348,0.075-0.522,0.11
	c-1.44,0.294-2.891,0.556-4.346,0.802c-0.373,0.062-0.747,0.126-1.122,0.187c-1.482,0.236-2.973,0.453-4.471,0.639
	c-0.276,0.034-0.553,0.062-0.83,0.095c-1.376,0.163-2.759,0.304-4.148,0.423c-0.276,0.024-0.552,0.052-0.827,0.074
	c-1.537,0.122-3.083,0.215-4.636,0.283c-0.344,0.016-0.689,0.027-1.032,0.04c-1.601,0.058-3.206,0.098-4.822,0.098
	c-1.642,0-3.274-0.041-4.902-0.1c-0.334-0.013-0.668-0.024-1-0.038c-1.571-0.069-3.137-0.165-4.694-0.291
	c-0.294-0.024-0.588-0.052-0.883-0.079c-1.447-0.126-2.887-0.273-4.319-0.447c-0.212-0.025-0.426-0.047-0.638-0.072
	c-1.532-0.192-3.052-0.419-4.567-0.663c-0.372-0.059-0.743-0.122-1.115-0.185c-1.494-0.255-2.98-0.529-4.455-0.834
	c-0.267-0.055-0.532-0.117-0.799-0.175c-1.293-0.276-2.578-0.571-3.857-0.885c-0.362-0.089-0.726-0.174-1.086-0.266
	c-1.393-0.355-2.778-0.734-4.153-1.133c-0.43-0.124-0.859-0.255-1.287-0.383c-1.236-0.372-2.465-0.76-3.686-1.167
	c-0.406-0.136-0.809-0.274-1.212-0.413c-1.141-0.395-2.276-0.806-3.403-1.23c-0.491-0.185-0.982-0.369-1.47-0.56
	c-1.226-0.479-2.444-0.974-3.653-1.489c-0.518-0.221-1.031-0.45-1.546-0.677c-0.87-0.383-1.734-0.777-2.594-1.178
	c-0.661-0.308-1.318-0.619-1.972-0.939c-0.948-0.462-1.888-0.936-2.823-1.421c-0.618-0.321-1.233-0.645-1.846-0.974
	c-0.772-0.416-1.537-0.843-2.3-1.273c-0.908-0.513-1.81-1.038-2.704-1.571c-0.545-0.324-1.085-0.652-1.624-0.984
	c-1.188-0.733-2.361-1.485-3.523-2.254c-0.386-0.256-0.776-0.506-1.16-0.767c-0.754-0.511-1.499-1.03-2.242-1.556
	c-0.296-0.209-0.588-0.423-0.883-0.634c-1.39-1.001-2.764-2.028-4.113-3.083c-0.158-0.123-0.318-0.246-0.475-0.371
	c-20.556-16.21-36.16-38.434-44.128-63.994C139.66,301.206,150.695,305.603,164.525,305.603z"/>
</svg>