<svg width="200" height="200" viewBox="0 0 32 32" fill="none" xmlns="http://www.w3.org/2000/svg">
<path d="M22.2342 18.0841C20.2492 18.0841 20.1291 16.3634 17.9855 13.9279C15.8412 11.4929 12.9559 11.3341 12.9559 11.3341C12.9559 11.3341 13.1675 12.1549 13.1675 14.3518C13.1675 16.5484 11.5263 18.2163 10.2828 18.2163C7.24327 18.2163 6.9209 13.6451 6.9209 15.9927C6.9209 21.0071 10.9856 25.0724 16 25.0724C21.0143 25.0724 25.079 21.0071 25.079 15.9927C25.079 13.6451 24.9663 18.0841 22.2342 18.0841Z" fill="#FFBB1C"/>
<path d="M25.9558 15.4298C25.9195 14.6515 25.4154 14.4769 25.2004 14.4379C24.8773 14.3792 24.4175 14.4966 24.1859 15.0198C24.1547 15.0903 24.1253 15.169 24.088 15.2685C23.7303 16.2236 23.2303 17.2001 22.2342 17.2001C21.4338 17.2001 21.1657 16.85 20.3592 15.6353C19.9396 15.0034 19.4174 14.2168 18.6488 13.3437C16.2868 10.6614 13.1373 10.4588 13.0044 10.4514C12.7226 10.4366 12.45 10.5519 12.2713 10.7699C12.0925 10.988 12.0276 11.2744 12.098 11.5473C12.0999 11.555 12.2836 12.3448 12.2836 14.3518C12.2836 16.1033 10.9855 17.3323 10.2828 17.3323C9.10961 17.3323 8.48524 16.3521 7.98517 15.2928C7.95217 15.2229 7.91311 15.1409 7.86649 15.0558C8.33624 10.9839 11.8044 7.81176 16 7.81176C18.7179 7.81176 21.2529 9.15645 22.7811 11.4088C23.0553 11.8127 23.605 11.9179 24.009 11.644C24.4129 11.3698 24.5183 10.8201 24.2442 10.4161C22.3864 7.67814 19.3045 6.0437 16 6.0437C10.7556 6.0437 6.44567 10.1196 6.07055 15.2699C6.06249 15.316 6.05586 15.3638 6.05174 15.415C6.04142 15.5432 6.03699 15.716 6.03699 15.9927C6.03699 21.4866 10.5065 25.9564 16.0001 25.9564C21.4937 25.9564 25.9632 21.4867 25.9632 15.9927C25.963 15.7416 25.9618 15.5599 25.9558 15.4298ZM10.2828 19.1002C12.0257 19.1002 14.0515 17.026 14.0515 14.3518C14.0515 13.5476 14.0239 12.9162 13.9874 12.4326C14.9004 12.6956 16.2286 13.2703 17.322 14.5118C18.011 15.2946 18.4762 15.9951 18.8864 16.6131C19.7254 17.8766 20.45 18.9679 22.2343 18.9679C22.841 18.9679 23.3491 18.8139 23.7739 18.5728C23.2839 20.0499 22.3841 21.3419 21.2095 22.3129C21.207 22.315 21.2046 22.317 21.2022 22.319C21.0563 22.4393 20.9061 22.5545 20.7521 22.6646C20.7367 22.6757 20.7212 22.6865 20.7057 22.6973C20.6248 22.7543 20.5427 22.8098 20.4597 22.8639C20.4369 22.8788 20.4143 22.8937 20.3914 22.9083C20.3464 22.9371 20.3009 22.9655 20.2552 22.9934C20.2217 23.0138 20.1878 23.0337 20.154 23.0537C20.0894 23.0919 20.0242 23.1293 19.9584 23.1658C19.921 23.1865 19.8835 23.207 19.8457 23.2271C19.8065 23.2481 19.7672 23.2692 19.7275 23.2896C19.6615 23.3235 19.5949 23.3564 19.5279 23.3885C19.4912 23.406 19.4545 23.4231 19.4176 23.4401C19.3643 23.4646 19.3107 23.4886 19.2567 23.512C19.216 23.5297 19.1752 23.5472 19.1342 23.5643C19.0719 23.5901 19.0092 23.6154 18.9462 23.6398C18.9141 23.6522 18.8818 23.6646 18.8494 23.6766C18.7713 23.7057 18.6928 23.7338 18.6136 23.7606C18.5879 23.7693 18.5619 23.7775 18.5361 23.7858C18.4689 23.8078 18.4012 23.829 18.3332 23.8492C18.3082 23.8566 18.2832 23.8643 18.258 23.8716C18.1734 23.8959 18.088 23.9187 18.0023 23.9403C17.9765 23.9468 17.9507 23.9531 17.9249 23.9593C17.8411 23.9795 17.757 23.9989 17.6722 24.0165C17.6613 24.0186 17.6504 24.0211 17.6395 24.0233C17.5495 24.0417 17.4589 24.0581 17.3679 24.0735C17.3446 24.0773 17.3212 24.0813 17.2978 24.0851C17.2052 24.0999 17.112 24.1135 17.0184 24.1251C17.0011 24.1272 16.9838 24.129 16.9665 24.131C16.8805 24.1412 16.794 24.15 16.7072 24.1575C16.69 24.159 16.6727 24.1607 16.6556 24.1621C16.5595 24.1697 16.4629 24.1755 16.3658 24.1798C16.3443 24.1808 16.3227 24.1814 16.3013 24.1823C16.2012 24.1859 16.1009 24.1884 15.9999 24.1884C15.8973 24.1884 15.7953 24.1858 15.6936 24.1821C15.6727 24.1813 15.6518 24.1806 15.6311 24.1798C15.5329 24.1755 15.435 24.1695 15.3377 24.1616C15.3193 24.1601 15.3009 24.1583 15.2825 24.1566C15.1921 24.1488 15.1021 24.1396 15.0126 24.1287C14.9993 24.1271 14.9859 24.1258 14.9727 24.1242C14.8769 24.1122 14.7819 24.098 14.6872 24.0828C14.664 24.0791 14.6408 24.0751 14.6175 24.0712C14.5242 24.0553 14.4313 24.0381 14.3391 24.0191C14.3224 24.0156 14.3059 24.0118 14.2892 24.0081C14.2084 23.9909 14.1281 23.9725 14.0481 23.9528C14.0255 23.9473 14.0027 23.942 13.9802 23.9362C13.8932 23.914 13.8066 23.8903 13.7207 23.8654C13.6938 23.8576 13.667 23.8495 13.6402 23.8415C13.563 23.8182 13.4862 23.794 13.4099 23.7685C13.3845 23.76 13.3593 23.7514 13.3341 23.7427C13.2628 23.718 13.1919 23.6923 13.1214 23.6658C13.0907 23.6543 13.0601 23.6428 13.0296 23.6308C12.9529 23.6009 12.8768 23.57 12.8012 23.5378C12.7689 23.524 12.7368 23.5096 12.7046 23.4955C12.6502 23.4715 12.5962 23.4469 12.5425 23.4218C12.5012 23.4026 12.4601 23.3831 12.4192 23.3631C12.36 23.3343 12.3012 23.3046 12.2428 23.2743C12.2042 23.2543 12.1657 23.234 12.1274 23.2135C12.0792 23.1875 12.0314 23.1608 11.9837 23.1339C11.9269 23.1018 11.8705 23.069 11.8147 23.0357C11.7806 23.0155 11.7469 22.995 11.7132 22.9742C11.6389 22.9284 11.5656 22.8814 11.493 22.8333C11.4689 22.8173 11.4445 22.8017 11.4205 22.7854C11.3734 22.7535 11.3268 22.721 11.2804 22.6881C11.2619 22.6751 11.2436 22.6617 11.2252 22.6485C11.1383 22.586 11.0524 22.5218 10.9681 22.4558C10.9582 22.4481 10.9482 22.4405 10.9384 22.4326C9.65367 21.4195 8.67842 20.0305 8.18042 18.433C8.72874 18.8254 9.41842 19.1002 10.2828 19.1002Z" fill="#DCDCDC"/>
</svg>
