<svg width="200" height="200" viewBox="0 0 32 32" fill="none" xmlns="http://www.w3.org/2000/svg">
<path d="M25.4552 14.0258V12.5978C25.4552 10.4015 23.6747 8.62106 21.4784 8.62106H10.5215C8.32524 8.62106 6.5448 10.4015 6.5448 12.5978V19.4021C6.5448 21.5984 8.32524 23.3789 10.5215 23.3789H21.4785C23.6749 23.3789 25.4553 21.5984 25.4553 19.4021V18.5341M12.8808 19.2964V12.6821L19.4783 15.9893L12.8808 19.2964Z" fill="#FFBB1C"/>
<path d="M21.4785 24.2629H10.5214C7.84114 24.2629 5.66064 22.0824 5.66064 19.4021V12.5978C5.66064 9.91756 7.84114 7.73706 10.5214 7.73706H21.4784C24.1586 7.73706 26.3391 9.91756 26.3391 12.5978V14.0258C26.3391 14.5141 25.9434 14.9098 25.4551 14.9098C24.9669 14.9098 24.5711 14.5141 24.5711 14.0258V12.5978C24.5711 10.8924 23.1838 9.50506 21.4784 9.50506H10.5214C8.81602 9.50506 7.42864 10.8924 7.42864 12.5978V19.4021C7.42864 21.1075 8.81602 22.4949 10.5214 22.4949H21.4784C23.1838 22.4949 24.5711 21.1075 24.5711 19.4021V18.5341C24.5711 18.0458 24.9669 17.6501 25.4551 17.6501C25.9434 17.6501 26.3391 18.0458 26.3391 18.5341V19.4021C26.3391 22.0824 24.1586 24.2629 21.4785 24.2629ZM12.8808 20.1804C12.7193 20.1804 12.5583 20.1362 12.4165 20.0486C12.1556 19.8876 11.9968 19.6029 11.9968 19.2964V12.6821C11.9968 12.3755 12.1556 12.0909 12.4165 11.9299C12.6773 11.7689 13.0029 11.7545 13.2769 11.8917L19.8745 15.199C20.1735 15.3489 20.3623 15.6547 20.3623 15.9892C20.3623 16.3237 20.1735 16.6296 19.8745 16.7795L13.2769 20.0866C13.152 20.1493 13.0163 20.1804 12.8808 20.1804ZM13.7647 14.1141V17.8645L17.5056 15.9893L13.7647 14.1141Z" fill="#DCDCDC"/>
</svg>
